<?xml version="1.0" encoding="utf-8"?>
<!-- Generator: Adobe Illustrator 17.0.0, SVG Export Plug-In . SVG Version: 6.00 Build 0)  -->
<!DOCTYPE svg PUBLIC "-//W3C//DTD SVG 1.1//EN" "http://www.w3.org/Graphics/SVG/1.1/DTD/svg11.dtd">
<svg version="1.1" id="Layer_1" xmlns="http://www.w3.org/2000/svg" xmlns:xlink="http://www.w3.org/1999/xlink" x="0px" y="0px"
	 width="1600px" height="1200px" viewBox="0 0 1600 1200" enable-background="new 0 0 1600 1200" xml:space="preserve">
<g>
	<g>
		<path fill="#FFFFFF" d="M786.491,602.809c2.381,1.376,4.329,4.751,4.329,7.501v32.41c0,2.75-1.948,3.875-4.33,2.5L767.6,634.31
			c-2.381-1.375-6.279-3.625-8.661-4.998l-0.527-0.304c-2.382-1.374-6.28-3.623-8.661-4.998l-0.52-0.3
			c-2.382-1.375-6.278-3.626-8.659-5.001l-0.531-0.307c-2.381-1.376-6.278-3.626-8.659-5.001l-18.88-10.9
			c-2.382-1.375-6.278-3.626-8.659-5.001l-0.531-0.307c-2.381-1.376-6.278-3.626-8.659-5.001l-0.52-0.3
			c-2.382-1.375-6.279-3.624-8.661-4.998l-0.527-0.304c-2.382-1.374-4.331-0.248-4.331,2.502v11.21c0,2.75,1.948,6.126,4.329,7.501
			l0.531,0.307c2.381,1.376,6.278,3.626,8.659,5.001l0.52,0.3c2.382,1.375,6.279,3.625,8.661,4.999l18.889,10.901
			c2.382,1.375,6.278,3.626,8.659,5.003l0.524,0.303c2.38,1.377,6.277,3.628,8.659,5.001l0.527,0.304
			c2.382,1.374,6.28,3.623,8.661,4.998l0.52,0.3c2.382,1.375,6.279,3.625,8.66,5l18.89,10.909c2.381,1.375,6.279,3.625,8.661,4.998
			l0.527,0.304c2.382,1.374,4.331,4.748,4.331,7.498v96.05c0,2.75-1.948,3.875-4.33,2.5L767.6,761.57
			c-2.381-1.375-6.278-3.626-8.659-5.002l-0.531-0.307c-2.381-1.376-6.278-3.626-8.659-5.001l-0.52-0.3
			c-2.382-1.375-6.279-3.624-8.661-4.998l-0.527-0.304c-2.382-1.374-6.28-3.623-8.661-4.998l-18.88-10.9
			c-2.382-1.375-4.332-2.5-4.335-2.5s-1.953-1.127-4.333-2.503l-0.524-0.303c-2.38-1.377-6.277-3.628-8.659-5.001l-0.527-0.304
			c-2.382-1.374-6.28-3.623-8.661-4.998l-0.52-0.3c-2.382-1.375-6.279-3.625-8.66-5l-18.89-10.909c-2.381-1.375-6.278-3.625-8.66-5
			l-0.52-0.3c-2.382-1.375-4.33-4.75-4.33-7.5v-32.42c0-2.75,1.948-3.874,4.329-2.499l18.881,10.908
			c2.381,1.376,6.279,3.625,8.661,4.999l9.717,5.604c2.382,1.374,6.279,3.625,8.659,5.001l0.524,0.303
			c2.38,1.377,6.277,3.628,8.659,5.003l18.889,10.901c2.382,1.375,6.279,3.624,8.661,4.999l0.52,0.3
			c2.382,1.375,6.278,3.626,8.659,5.001l0.531,0.307c2.381,1.376,6.278,3.626,8.659,5.001l0.52,0.3c2.382,1.375,4.33,0.25,4.33-2.5
			v-11.21c0-2.75-1.948-6.127-4.328-7.504l-0.524-0.303c-2.38-1.377-6.277-3.628-8.659-5.001l-0.527-0.304
			c-2.382-1.374-6.28-3.623-8.661-4.998l-18.88-10.9c-2.382-1.375-6.278-3.626-8.659-5.001l-0.531-0.307
			c-2.381-1.376-6.278-3.626-8.661-4.999l-0.527-0.304c-2.382-1.374-6.28-3.623-8.661-4.998l-0.52-0.3
			c-2.382-1.375-6.278-3.625-8.66-5.001l-18.881-10.908c-2.381-1.376-6.279-3.625-8.661-4.999l-0.527-0.304
			c-2.382-1.374-4.331-4.748-4.331-7.498v-96.04c0-2.75,1.949-3.875,4.33-2.5l18.88,10.9c2.382,1.375,4.332,2.5,4.335,2.5
			s1.953,1.127,4.333,2.503l0.524,0.303c2.38,1.377,6.277,3.628,8.658,5.003l0.52,0.3c2.382,1.375,6.279,3.624,8.661,4.998
			l0.527,0.304c2.382,1.374,6.28,3.623,8.661,4.998l18.89,10.909c2.381,1.375,6.278,3.625,8.66,5l0.52,0.3
			c2.382,1.375,6.279,3.624,8.661,4.998l0.527,0.304c2.382,1.374,6.279,3.625,8.659,5.001l0.524,0.303
			c2.38,1.377,6.277,3.628,8.659,5.003l18.889,10.901c2.382,1.375,6.279,3.625,8.66,5.001L786.491,602.809z"/>
	</g>
	<g>
		<path fill="#FFFFFF" d="M951.79,522.97c2.382-1.375,4.33-0.25,4.33,2.5v32.41c0,2.75-1.948,6.127-4.328,7.503l-0.524,0.303
			c-2.38,1.377-4.33,2.503-4.333,2.503s-1.954,1.125-4.335,2.5l-18.88,10.9c-2.382,1.375-6.279,3.624-8.661,4.998l-0.527,0.304
			c-2.382,1.374-6.28,3.623-8.661,4.998l-0.52,0.3c-2.382,1.375-6.278,3.626-8.659,5.001l-0.531,0.307
			c-2.381,1.376-6.278,3.626-8.659,5.001l-18.88,10.9c-2.382,1.375-6.278,3.626-8.659,5.001l-0.531,0.307
			c-2.381,1.376-6.278,3.626-8.659,5.001l-0.52,0.3c-2.382,1.375-4.33,4.75-4.33,7.5v11.21c0,2.75,1.949,3.875,4.33,2.5l0.52-0.3
			c2.382-1.375,6.279-3.624,8.661-4.998l0.527-0.304c2.382-1.374,6.279-3.625,8.659-5.001l0.524-0.303
			c2.38-1.377,6.277-3.628,8.659-5.003l18.889-10.901c2.382-1.375,6.279-3.624,8.661-4.999l0.52-0.3
			c2.382-1.375,6.278-3.626,8.659-5.001l0.531-0.307c2.381-1.376,6.278-3.626,8.661-4.999l0.527-0.304
			c2.382-1.374,6.28-3.623,8.661-4.998l18.88-10.9c2.382-1.375,4.33-0.25,4.33,2.5v96.04c0,2.75-1.949,6.125-4.33,7.5l-0.52,0.3
			c-2.382,1.375-6.279,3.625-8.66,5l-18.89,10.909c-2.381,1.375-6.278,3.625-8.66,5l-0.52,0.3c-2.382,1.375-6.279,3.624-8.661,4.998
			l-0.527,0.304c-2.382,1.374-6.279,3.624-8.661,4.999l-0.531,0.307c-2.381,1.376-6.278,3.626-8.659,5.001l-18.88,10.9
			c-2.382,1.375-6.279,3.624-8.661,4.998l-0.527,0.304c-2.382,1.374-6.28,3.623-8.661,4.998l-0.52,0.3
			c-2.382,1.375-6.278,3.626-8.659,5.001l-0.531,0.307c-2.381,1.376-6.278,3.627-8.659,5.002l-18.89,10.909
			c-2.381,1.375-4.33,0.25-4.33-2.5v-32.42c0-2.75,1.948-6.126,4.329-7.501l0.531-0.307c2.381-1.376,6.278-3.626,8.66-5.001
			l18.889-10.901c2.382-1.375,6.279-3.624,8.661-4.999l0.52-0.3c2.382-1.375,6.278-3.626,8.659-5.001l0.531-0.307
			c2.381-1.376,6.278-3.626,8.659-5.001l0.52-0.3c2.382-1.375,6.279-3.625,8.661-4.999l18.889-10.901
			c2.382-1.375,6.278-3.626,8.659-5.003l0.524-0.303c2.38-1.377,6.277-3.628,8.659-5.001l0.527-0.304
			c2.382-1.374,4.331-4.748,4.331-7.498v-11.21c0-2.75-1.949-3.875-4.33-2.5l-0.52,0.3c-2.382,1.375-6.279,3.624-8.661,4.998
			l-0.527,0.304c-2.382,1.374-6.279,3.624-8.661,4.999l-0.531,0.307c-2.381,1.376-6.278,3.626-8.659,5.001l-18.88,10.9
			c-2.382,1.375-6.279,3.624-8.661,4.998l-0.527,0.304c-2.382,1.374-6.279,3.625-8.659,5.001l-0.524,0.303
			c-2.38,1.377-6.277,3.628-8.659,5.001l-0.527,0.304c-2.382,1.374-6.28,3.623-8.661,4.998l-18.89,10.909
			c-2.381,1.375-4.33,0.25-4.33-2.5v-96.04c0-2.75,1.948-6.126,4.329-7.501l0.531-0.307c2.381-1.376,6.278-3.626,8.66-5.001
			l18.889-10.901c2.382-1.375,6.278-3.626,8.659-5.003l0.524-0.303c2.38-1.377,6.277-3.628,8.659-5.001l0.527-0.304
			c2.382-1.374,6.28-3.623,8.661-4.998l0.52-0.3c2.382-1.375,6.279-3.625,8.66-5l18.89-10.909c2.381-1.375,6.279-3.625,8.661-4.998
			l0.527-0.304c2.382-1.374,6.28-3.623,8.661-4.998l0.52-0.3c2.382-1.375,6.278-3.627,8.658-5.003l0.524-0.303
			c2.38-1.377,4.33-2.503,4.333-2.503s1.954-1.125,4.335-2.5L951.79,522.97z"/>
	</g>
	<g>
		<path fill="#FFFFFF" d="M942.61,502.06c2.381,1.375,2.381,3.625-0.001,5l-18.889,10.901c-2.382,1.375-6.279,3.625-8.66,5.001
			l-0.531,0.307c-2.381,1.376-6.278,3.626-8.659,5.001l-0.52,0.3c-2.382,1.375-6.279,3.624-8.661,4.998l-0.527,0.304
			c-2.382,1.374-6.28,3.623-8.661,4.998l-18.88,10.9c-2.382,1.375-6.278,3.626-8.659,5.001l-0.531,0.307
			c-2.381,1.376-6.278,3.626-8.659,5.001l-0.52,0.3c-2.382,1.375-6.278,3.626-8.659,5.001l-0.531,0.307
			c-2.381,1.376-6.278,3.626-8.66,5.001l-18.889,10.901c-2.382,1.375-6.279,3.624-8.661,4.999l-0.52,0.3
			c-2.382,1.375-6.279,1.375-8.66,0l-0.52-0.3c-2.382-1.375-6.279-3.625-8.661-4.999l-18.889-10.901
			c-2.382-1.375-6.279-3.625-8.66-5.001l-0.531-0.307c-2.381-1.376-6.278-3.626-8.659-5.001l-0.52-0.3
			c-2.382-1.375-6.278-3.626-8.659-5.001l-0.531-0.307c-2.381-1.376-6.278-3.626-8.659-5.001l-18.88-10.9
			c-2.382-1.375-6.279-3.624-8.661-4.998l-0.527-0.304c-2.382-1.374-6.28-3.623-8.661-4.998l-0.52-0.3
			c-2.382-1.375-6.278-3.626-8.659-5.001l-0.531-0.307c-2.381-1.376-6.278-3.626-8.66-5.001l-18.889-10.901
			c-2.382-1.375-2.382-3.625-0.001-5l18.89-10.909c2.381-1.375,6.278-3.625,8.66-5l0.52-0.3c2.382-1.375,6.279-3.624,8.661-4.998
			l0.527-0.304c2.382-1.374,6.279-3.625,8.659-5.001l0.524-0.303c2.38-1.377,4.33-2.504,4.333-2.504s1.954-1.125,4.335-2.5
			l18.88-10.9c2.382-1.375,6.279-3.624,8.661-4.998l0.527-0.304c2.382-1.374,6.28-3.623,8.661-4.998l0.52-0.3
			c2.382-1.375,6.278-3.626,8.659-5.001l0.531-0.307c2.381-1.376,6.278-3.627,8.659-5.002l18.89-10.909
			c2.381-1.375,6.278-3.625,8.66-5l0.52-0.3c2.382-1.375,6.279-1.375,8.66,0l0.52,0.3c2.382,1.375,6.279,3.625,8.66,5l18.89,10.909
			c2.381,1.375,2.381,3.626,0,5.001l-18.89,10.909c-2.381,1.375-6.278,3.625-8.66,5l-0.52,0.3c-2.382,1.375-6.279,3.625-8.66,5
			l-0.52,0.3c-2.382,1.375-6.278,3.626-8.659,5.001l-0.531,0.307c-2.381,1.376-6.278,3.626-8.66,5.001l-18.889,10.901
			c-2.382,1.375-6.279,3.624-8.661,4.999l-0.52,0.3c-2.382,1.375-6.278,3.626-8.659,5.001l-0.531,0.307
			c-2.381,1.376-6.278,3.626-8.659,5.001l-0.52,0.3c-2.382,1.375-2.382,3.625,0,5l0.52,0.3c2.382,1.375,6.278,3.626,8.659,5.001
			l0.531,0.307c2.381,1.376,6.278,3.626,8.659,5.001l0.52,0.3c2.382,1.375,6.279,3.625,8.661,4.999l18.889,10.901
			c2.382,1.375,6.279,3.625,8.66,5.001l0.531,0.307c2.381,1.376,6.278,3.626,8.659,5.001l0.52,0.3c2.382,1.375,6.279,1.375,8.66,0
			l0.52-0.3c2.382-1.375,6.278-3.626,8.659-5.001l0.531-0.307c2.381-1.376,6.278-3.626,8.66-5.001l18.889-10.901
			c2.382-1.375,6.279-3.624,8.661-4.999l0.52-0.3c2.382-1.375,6.278-3.626,8.659-5.001l0.531-0.307
			c2.381-1.376,6.278-3.626,8.659-5.001l0.52-0.3c2.382-1.375,2.382-3.625,0-5l-0.52-0.3c-2.382-1.375-6.278-3.626-8.659-5.001
			l-0.531-0.307c-2.381-1.376-6.278-1.376-8.659-0.001l-0.52,0.3c-2.382,1.375-6.278,3.626-8.659,5.001l-0.531,0.307
			c-2.381,1.376-6.278,3.627-8.659,5.002l-18.89,10.909c-2.381,1.375-6.278,3.625-8.66,5l-0.52,0.3c-2.382,1.375-6.279,1.375-8.66,0
			l-0.52-0.3c-2.382-1.375-6.279-3.625-8.66-5L767.6,507.06c-2.381-1.375-2.381-3.626,0-5.001l18.89-10.909
			c2.381-1.375,6.278-3.625,8.66-5l9.7-5.6c2.382-1.375,6.279-3.624,8.661-4.998l0.527-0.304c2.382-1.374,6.28-3.623,8.661-4.998
			l18.89-10.909c2.381-1.375,6.278-3.625,8.66-5l0.52-0.3c2.382-1.375,6.279-1.376,8.661-0.002l0.527,0.304
			c2.382,1.374,6.28,3.623,8.661,4.998l18.88,10.9c2.382,1.375,6.278,3.626,8.659,5.001l0.531,0.307
			c2.381,1.376,6.278,3.626,8.661,4.999l0.527,0.304c2.382,1.374,6.28,3.623,8.661,4.998l0.52,0.3c2.382,1.375,6.279,3.625,8.66,5
			L942.61,502.06z"/>
	</g>
</g>
</svg>
